<?xml version="1.0" standalone="no"?>
<!DOCTYPE svg PUBLIC "-//W3C//DTD SVG 20010904//EN"
 "http://www.w3.org/TR/2001/REC-SVG-20010904/DTD/svg10.dtd">
<svg version="1.0" xmlns="http://www.w3.org/2000/svg"
 width="400.000000pt" height="400.000000pt" viewBox="0 0 400.000000 400.000000"
 preserveAspectRatio="xMidYMid meet">
<metadata>
Created by potrace 1.14, written by Peter Selinger 2001-2017
</metadata>
<g transform="translate(0.000000,400.000000) scale(0.100000,-0.100000)"
fill="#000000" stroke="none">
<path d="M1865 3979 c-4 -6 -15 -9 -25 -6 -10 2 -24 1 -31 -4 -8 -5 -17 -3
-21 4 -6 9 -8 9 -8 -1 0 -7 -4 -11 -9 -7 -5 3 -12 1 -16 -5 -4 -6 -12 -7 -18
-3 -17 10 -38 13 -32 4 2 -5 -8 -9 -23 -9 -26 -2 -67 -9 -67 -12 0 -1 -11 -3
-25 -5 -36 -6 -52 -10 -80 -20 -14 -4 -36 -9 -50 -10 -14 -1 -24 -6 -23 -12 1
-6 -9 -9 -22 -7 -14 1 -27 -2 -30 -6 -3 -5 -12 -7 -20 -3 -10 3 -15 -1 -15
-13 0 -15 -2 -16 -9 -5 -6 9 -11 10 -15 2 -4 -6 -12 -9 -17 -6 -5 4 -9 1 -9
-5 0 -6 -4 -9 -9 -5 -5 3 -12 1 -16 -5 -4 -6 -11 -8 -16 -5 -5 4 -9 1 -9 -5 0
-7 -7 -9 -16 -6 -8 3 -13 2 -10 -3 3 -5 -10 -12 -29 -15 -19 -4 -35 -11 -35
-17 0 -6 5 -7 12 -3 6 4 8 3 5 -3 -4 -6 -19 -8 -33 -5 -19 3 -25 1 -20 -7 5
-7 0 -11 -13 -11 -12 0 -21 -5 -21 -11 0 -5 -5 -7 -10 -4 -6 3 -13 0 -16 -9
-3 -8 -12 -12 -19 -10 -7 3 -16 0 -21 -7 -5 -8 -3 -10 6 -4 8 5 11 4 6 -3 -4
-6 -12 -9 -19 -6 -7 2 -23 -5 -35 -16 -12 -11 -22 -17 -22 -13 0 4 -5 0 -11
-10 -6 -9 -14 -15 -20 -12 -5 4 -9 1 -9 -5 0 -6 -5 -8 -10 -5 -6 3 -10 -1 -10
-10 0 -9 -4 -13 -10 -10 -5 3 -10 1 -10 -6 0 -7 -3 -10 -6 -6 -3 3 -14 -3 -25
-14 -11 -11 -25 -17 -31 -13 -6 4 -8 3 -5 -3 4 -5 -5 -16 -19 -23 -13 -8 -23
-19 -20 -26 3 -8 -1 -11 -10 -7 -7 3 -14 0 -14 -6 0 -6 -4 -11 -10 -11 -15 0
-50 -33 -44 -42 3 -4 -2 -5 -10 -2 -9 3 -16 1 -16 -6 0 -14 -25 -40 -39 -40
-6 0 -10 -3 -8 -8 1 -4 -2 -9 -7 -12 -20 -11 -72 -65 -68 -72 2 -5 -4 -8 -12
-8 -10 0 -13 -6 -9 -17 4 -9 2 -14 -3 -11 -5 2 -20 -7 -34 -20 -14 -14 -18
-21 -10 -17 8 5 3 -4 -12 -19 -15 -16 -25 -33 -21 -39 3 -5 2 -7 -4 -4 -5 3
-20 -11 -34 -32 -13 -22 -27 -37 -31 -34 -5 2 -8 -4 -8 -15 0 -10 -9 -27 -20
-37 -11 -10 -17 -22 -14 -26 3 -5 -2 -12 -10 -15 -9 -3 -13 -10 -10 -15 3 -5
0 -9 -6 -9 -6 0 -9 -4 -6 -9 4 -5 1 -11 -4 -13 -6 -2 -13 -12 -14 -23 -2 -11
-10 -19 -17 -17 -8 2 -11 0 -6 -4 4 -4 -1 -16 -10 -27 -10 -11 -12 -17 -5 -13
6 4 12 3 12 -2 0 -6 -7 -13 -16 -16 -9 -4 -14 -9 -11 -12 3 -4 -1 -13 -9 -22
-9 -8 -13 -23 -11 -33 3 -10 0 -17 -7 -16 -6 1 -10 -4 -8 -10 1 -7 -2 -13 -8
-13 -5 0 -7 -7 -4 -15 4 -8 1 -15 -6 -15 -6 0 -8 -4 -5 -10 3 -5 1 -10 -5 -10
-6 0 -9 -4 -5 -9 3 -5 0 -13 -6 -16 -5 -4 -8 -14 -5 -22 4 -9 2 -11 -6 -7 -8
5 -9 2 -5 -9 3 -9 2 -19 -3 -22 -5 -3 -6 -13 -3 -22 4 -10 2 -14 -4 -10 -6 4
-13 -2 -16 -13 -3 -13 -1 -18 6 -13 9 5 9 3 0 -8 -14 -18 -44 -130 -37 -141 3
-4 0 -8 -6 -8 -7 0 -10 -6 -7 -12 2 -7 -2 -30 -9 -50 -10 -29 -10 -38 -1 -38
7 0 8 -3 2 -8 -19 -13 -30 -96 -12 -87 7 4 3 -1 -7 -9 -13 -10 -15 -16 -7 -16
11 0 11 -3 0 -17 -12 -15 -12 -16 1 -8 13 8 13 7 1 -8 -11 -14 -11 -20 0 -34
10 -11 10 -14 1 -9 -16 10 -16 -16 1 -33 7 -9 7 -11 1 -8 -7 4 -14 1 -17 -7
-3 -8 1 -17 10 -20 12 -5 13 -9 3 -21 -6 -8 -9 -19 -5 -25 3 -5 -2 -10 -12
-11 -13 -1 -11 -3 7 -9 18 -6 20 -8 7 -9 -10 -1 -16 -5 -13 -10 3 -5 7 -29 7
-54 2 -30 6 -44 13 -40 6 4 5 -1 -3 -10 -10 -13 -10 -17 -1 -17 10 0 10 -3 0
-15 -10 -12 -10 -15 1 -15 11 0 11 -2 -1 -10 -13 -9 -13 -10 0 -10 13 0 13 -1
0 -10 -11 -7 -12 -10 -2 -10 9 0 11 -7 7 -21 -5 -15 -4 -19 4 -15 8 5 8 0 1
-18 -6 -16 -6 -26 0 -26 5 0 7 -9 5 -20 -2 -11 0 -20 4 -20 5 0 8 -8 8 -17 0
-59 4 -84 13 -78 6 3 7 -1 4 -9 -3 -9 -2 -16 3 -16 5 0 8 -14 5 -30 -2 -17 0
-30 6 -30 6 0 11 -8 11 -17 1 -43 5 -58 14 -64 5 -4 11 -17 12 -30 1 -13 3
-30 4 -37 0 -7 5 -11 10 -8 5 4 7 -3 4 -14 -3 -12 1 -22 11 -26 9 -3 13 -10
10 -15 -3 -6 -1 -15 4 -22 5 -7 8 -19 7 -29 -2 -9 5 -18 15 -21 14 -3 17 -11
13 -27 -3 -12 -1 -25 5 -29 6 -3 12 -13 14 -21 2 -8 9 -21 16 -28 7 -8 10 -18
7 -23 -4 -5 -1 -9 4 -9 6 0 11 -9 11 -19 0 -11 9 -26 20 -34 11 -8 17 -17 13
-20 -3 -4 4 -18 17 -32 13 -14 21 -28 17 -31 -3 -3 5 -17 19 -31 13 -13 22
-29 19 -34 -4 -5 1 -9 9 -9 8 0 18 -5 22 -12 5 -7 2 -9 -7 -4 -8 4 -6 1 3 -7
10 -8 15 -17 11 -20 -3 -4 -1 -7 5 -7 7 0 12 -7 12 -16 0 -8 3 -13 8 -11 4 3
13 -1 20 -9 7 -8 10 -14 5 -14 -4 0 8 -14 25 -31 18 -17 29 -36 25 -43 -3 -6
-3 -8 1 -4 9 8 56 -36 56 -52 0 -6 5 -8 10 -5 6 3 10 -1 10 -10 0 -11 5 -15
16 -11 9 3 12 2 9 -5 -7 -10 30 -49 46 -49 4 0 11 -10 14 -21 6 -17 9 -19 16
-8 7 11 9 10 9 -3 0 -10 6 -18 13 -18 7 0 18 -9 25 -20 7 -12 18 -18 25 -14 7
4 9 4 5 -1 -8 -9 15 -35 31 -35 6 0 11 -4 11 -10 0 -5 6 -10 13 -10 6 0 25
-14 40 -29 16 -16 42 -35 58 -41 16 -7 29 -16 29 -21 0 -5 9 -9 21 -9 11 0 17
-5 14 -10 -3 -6 3 -10 14 -10 10 0 21 -4 23 -10 2 -5 13 -11 25 -13 12 -2 26
-7 30 -12 5 -4 2 -5 -6 0 -10 6 -12 4 -7 -4 5 -7 14 -10 21 -7 7 2 16 -2 19
-10 3 -8 9 -14 13 -13 17 3 53 -14 53 -25 0 -6 5 -4 10 4 8 13 10 12 10 -2 0
-15 21 -24 33 -15 2 1 11 -4 20 -12 10 -7 17 -10 17 -5 0 5 4 5 8 -1 7 -10 61
-33 96 -40 11 -3 23 -10 28 -17 6 -10 8 -9 8 2 0 13 1 13 10 0 5 -8 12 -12 15
-8 4 3 18 0 32 -7 15 -8 30 -12 35 -9 4 3 8 1 8 -3 0 -8 21 -13 68 -16 12 0
22 -4 22 -8 0 -4 12 -8 28 -9 57 -2 72 -5 72 -13 0 -5 6 -7 13 -4 8 3 20 1 28
-3 7 -5 16 -5 19 0 3 5 17 3 32 -4 15 -8 29 -11 33 -8 12 12 34 10 39 -5 3 -8
11 -11 18 -7 14 9 118 12 113 4 -2 -3 5 -6 15 -6 10 0 16 4 14 8 -3 4 -1 8 5
8 5 0 13 -5 17 -11 4 -8 9 -7 16 2 7 11 11 11 15 1 2 -6 10 -9 16 -5 6 3 33 7
61 9 28 1 59 5 69 9 10 4 17 3 17 -4 0 -6 5 -11 11 -11 5 0 7 5 3 11 -5 8 3
10 25 7 17 -2 31 -1 31 3 0 4 9 6 20 4 11 -2 20 0 20 4 0 5 11 7 25 6 14 -2
25 1 25 6 0 4 7 6 16 2 9 -3 20 0 25 8 7 11 11 12 17 1 7 -10 11 -10 21 1 6 8
21 13 31 10 11 -3 20 -1 20 4 0 5 6 10 13 11 46 4 70 11 78 23 7 12 9 11 9 -1
0 -12 2 -13 9 -1 5 8 14 10 21 6 9 -6 11 -4 5 5 -5 8 -3 11 6 8 8 -3 20 2 26
11 10 13 14 13 21 3 7 -10 11 -10 21 2 7 8 26 18 42 21 18 4 27 11 22 18 -3 7
-3 9 2 5 4 -4 15 -2 23 5 13 9 14 9 8 0 -4 -7 -3 -13 2 -13 6 0 13 7 16 16 3
8 10 12 16 9 5 -3 10 -1 10 6 0 7 3 9 6 6 4 -4 20 3 35 14 16 11 33 17 39 14
5 -3 10 -1 10 5 0 6 13 16 29 21 16 6 32 17 35 25 3 8 15 14 26 14 11 0 20 4
20 9 0 5 14 14 31 20 17 6 28 15 24 21 -3 6 0 7 9 4 11 -4 16 0 16 11 0 11 5
15 15 11 8 -3 15 -1 15 4 0 5 9 12 20 15 11 3 20 13 20 21 0 8 4 13 9 9 6 -3
14 3 20 12 6 10 11 15 11 11 0 -5 19 10 42 32 24 22 49 40 57 40 8 0 11 6 7
15 -3 8 -1 15 4 15 14 0 60 46 60 60 0 7 3 11 6 7 8 -8 34 18 34 33 0 7 7 9
16 6 8 -3 12 -2 9 4 -3 6 0 10 7 10 9 0 9 3 -2 10 -13 8 -12 10 3 10 9 0 17 5
17 11 0 5 4 7 10 4 6 -3 7 1 4 9 -4 11 0 16 11 16 9 0 13 4 10 10 -3 5 -3 10
2 10 4 0 14 14 21 30 8 16 20 30 28 30 9 0 12 5 9 10 -3 6 -3 10 2 10 4 0 14
14 21 30 8 18 18 27 25 23 7 -3 9 -2 4 2 -4 5 1 17 10 28 13 15 14 18 3 12 -8
-4 -5 2 8 14 12 12 22 29 22 37 0 8 3 13 8 10 4 -2 12 7 19 20 8 18 8 22 0 18
-7 -4 -2 3 11 15 24 24 29 36 10 26 -7 -4 -4 1 6 9 11 9 17 16 13 16 -4 0 0
11 9 25 9 14 13 25 9 25 -4 0 -2 7 5 15 6 8 8 20 4 26 -5 8 -3 9 6 4 10 -6 12
-3 8 13 -4 12 -2 20 3 16 8 -4 10 1 9 21 -1 3 6 13 15 21 8 9 13 20 10 25 -4
5 0 9 7 9 10 0 10 2 -1 9 -11 7 -10 10 4 18 9 5 16 13 16 17 -1 3 6 20 15 37
11 23 12 29 2 24 -10 -6 -10 -5 -1 5 6 7 9 19 6 28 -5 10 -2 13 6 8 8 -5 11
-3 10 5 -2 14 8 61 19 89 3 8 7 26 8 39 2 13 8 29 13 34 7 7 7 17 0 30 -8 14
-8 18 0 13 15 -10 14 7 -1 23 -10 11 -10 13 0 7 8 -5 12 0 12 13 0 11 5 23 10
26 7 4 7 12 0 25 -6 11 -6 21 -1 24 5 4 8 26 7 51 -1 27 2 45 8 45 6 0 4 5 -4
10 -8 5 -10 10 -4 10 11 0 10 48 -1 78 -3 8 0 10 6 6 7 -4 9 0 5 12 -3 11 -6
52 -7 92 -1 42 -6 72 -12 72 -6 0 -2 6 8 14 18 13 18 14 0 23 -12 7 -14 13 -6
17 8 5 8 13 1 27 -6 10 -8 19 -4 19 3 0 0 8 -7 17 -12 14 -12 16 0 8 11 -6 13
-4 7 11 -4 10 -9 27 -11 37 -2 9 -7 22 -11 29 -4 7 -3 8 4 4 7 -4 12 -3 12 3
0 5 -4 11 -10 13 -5 2 -10 18 -12 36 -1 17 -6 32 -11 32 -5 0 -4 7 3 15 9 11
9 15 1 15 -7 0 -9 4 -6 10 3 6 -2 10 -12 10 -15 0 -16 2 -3 10 13 9 13 11 0
20 -8 5 -11 10 -6 10 6 0 5 5 -1 11 -6 6 -9 18 -6 26 3 8 0 19 -8 24 -12 7
-12 9 1 9 9 0 7 5 -8 16 -18 12 -20 19 -12 29 8 10 8 16 -2 22 -7 4 -13 14
-14 21 -3 38 -5 43 -13 38 -5 -4 -7 3 -4 14 3 12 -1 22 -10 26 -9 3 -14 15
-12 30 1 14 -4 28 -14 34 -9 5 -12 10 -7 10 6 0 1 7 -10 16 -10 8 -14 13 -8
10 12 -6 -15 54 -35 78 -6 7 -8 16 -4 19 3 4 1 7 -5 7 -7 0 -12 6 -12 14 0 8
-7 17 -16 20 -9 3 -14 13 -11 20 3 9 -5 21 -19 31 -14 9 -22 20 -19 25 3 5 -6
21 -20 36 -14 15 -23 29 -21 32 3 2 -11 20 -29 39 -19 20 -32 40 -29 45 3 4 0
7 -6 6 -7 -2 -17 6 -23 17 -7 11 -20 27 -29 36 -10 9 -18 21 -18 28 0 6 -7 11
-16 11 -10 0 -14 5 -10 16 3 8 2 12 -4 9 -6 -3 -10 -2 -10 4 0 6 -12 17 -27
25 -16 8 -24 15 -20 16 4 0 2 6 -5 14 -7 8 -17 11 -22 8 -5 -3 -6 0 -3 5 7 12
-16 36 -26 27 -3 -3 -8 4 -12 15 -3 12 -13 21 -20 21 -8 0 -19 9 -25 20 -6 11
-16 20 -23 20 -7 0 -23 14 -36 30 -13 17 -27 30 -33 30 -5 0 -33 18 -62 39
-30 22 -56 37 -60 34 -3 -4 -6 -2 -6 4 0 5 -19 19 -43 31 -24 12 -52 30 -61
41 -10 11 -24 17 -32 14 -8 -3 -14 0 -14 6 0 6 -7 11 -15 11 -8 0 -15 5 -15
10 0 6 -11 10 -24 10 -13 0 -26 4 -28 9 -1 5 -12 11 -23 13 -11 1 -23 7 -26
11 -3 5 -12 10 -20 11 -8 2 -25 8 -39 13 -14 6 -28 9 -32 6 -5 -2 -8 1 -8 6 0
6 -9 11 -20 11 -11 0 -20 4 -20 8 0 4 -12 9 -27 10 -16 1 -30 7 -31 13 -3 6
-9 6 -18 -2 -10 -8 -14 -8 -14 0 0 6 -8 11 -18 11 -10 0 -24 6 -31 13 -11 10
-12 9 -6 -3 6 -12 5 -13 -6 -2 -7 6 -28 12 -47 12 -18 0 -31 4 -28 9 3 5 -8 7
-24 6 -17 -1 -30 2 -30 7 0 5 -7 5 -17 0 -12 -7 -21 -5 -31 5 -12 12 -16 12
-23 1 -7 -10 -9 -10 -9 2 0 13 -1 13 -10 0 -5 -8 -10 -10 -10 -4 0 5 -10 11
-22 11 -69 4 -105 9 -117 17 -9 6 -12 5 -8 -1 4 -5 -7 -10 -23 -10 -17 0 -30
5 -30 11 0 7 -3 7 -8 1 -10 -14 -45 -16 -54 -2 -5 7 -8 8 -8 2 0 -6 -9 -11
-20 -12 -12 -1 -18 3 -14 9 4 6 -2 6 -15 -1 -16 -9 -21 -9 -21 1 0 8 -3 9 -8
3 -8 -12 -22 -13 -39 -2 -6 4 -15 2 -18 -4z"/>
</g>
</svg>
